{"title":"Attack Of The Nazi Herbals 2011 BDRip X264 AC3 - VoXHD","uid":8029857,"size":1371522882,"categoryP":"video","categoryS":"movies","magnet":"?xt=urn:btih:da4683fbe6a0a38276391f7f05cb754111c0ecf9&amp;dn=Attack+Of+The+Nazi+Herbals+2011+BDRip+X264+AC3+-+VoXHD&amp;tr=udp%3A%2F%2Ftracker.openbittorrent.com%3A80&amp;tr=udp%3A%2F%2Fopen.demonii.com%3A1337&amp;tr=udp%3A%2F%2Ftracker.coppersurfer.tk%3A6969&amp;tr=udp%3A%2F%2Fexodus.desync.com%3A6969","seeders":0,"leechers":1,"uploader":"juggs99","files":2,"time":1358385196,"description":" &lt;a href=&quot;http://img96.imageshack.us/img96/7900/t2ec16jyse9sy0hpzbq4z4m.jpg&quot; rel=&quot;nofollow&quot; target=&quot;_NEW&quot;&gt;http://img96.imageshack.us/img96/7900/t2ec16jyse9sy0hpzbq4z4m.jpg&lt;/a&gt;\n\n\n &lt;a href=&quot;\nhttp://www.imdb.com/title/tt1948521/&quot; rel=&quot;nofollow&quot; target=&quot;_NEW&quot;&gt;\nhttp://www.imdb.com/title/tt1948521/&lt;/a&gt;\n\nSource: Bluray Disc\n\nQuote:\nFormat                                   : Matroska\nFormat version                           : Version 2\nFile size                                : 1.28 GiB\nDuration                                 : 1h 25mn\nOverall bit rate                         : 2 143 Kbps\n\n\nVideo\nID                                       : 1\nFormat                                   : AVC\nFormat/Info                              : Advanced Video Codec\nFormat profile                           : &lt;a class=&quot;__cf_email__&quot; href=&quot;/cdn-cgi/l/email-protection&quot; data-cfemail=&quot;4a072b23240a0679647a&quot;&gt;[email&amp;#160;protected]&lt;/a&gt;&lt;script cf-hash='f9e31' type=&quot;text/javascript&quot;&gt;\n/* &lt;![CDATA[ */!function(){try{var t=&quot;currentScript&quot;in document?document.currentScript:function(){for(var t=document.getElementsByTagName(&quot;script&quot;),e=t.length;e--;)if(t[e].getAttribute(&quot;cf-hash&quot;))return t[e]}();if(t&amp;&amp;t.previousSibling){var e,r,n,i,c=t.previousSibling,a=c.getAttribute(&quot;data-cfemail&quot;);if(a){for(e=&quot;&quot;,r=parseInt(a.substr(0,2),16),n=2;a.length-n;n+=2)i=parseInt(a.substr(n,2),16)^r,e+=String.fromCharCode(i);e=document.createTextNode(e),c.parentNode.replaceChild(e,c)}}}catch(u){}}();/* ]]&gt; */&lt;/script&gt;\nFormat settings, CABAC                   : Yes\nFormat settings, ReFrames                : 4 frames\nCodec ID                                 : V_MPEG4/ISO/AVC\nDuration                                 : 1h 25mn\nBit rate                                 : 1 500 Kbps\nWidth                                    : 720 pixels\nHeight                                   : 400 pixels\nDisplay aspect ratio                     : 16:9\nFrame rate mode                          : Constant\nFrame rate                               : 23.976 fps\nColor space                              : YUV\nChroma subsampling                       : 4:2:0\nBit depth                                : 8 bits\nScan type                                : Progressive\nBits/(Pixel*Frame)                       : 0.217\nStream size                              : 891 MiB (68%)\nLanguage                                 : English\nDefault                                  : Yes\nForced                                   : No\nColor primaries                          : BT.709\nTransfer characteristics                 : BT.709\nMatrix coefficients                      : BT.709\n\nAudio\nID                                       : 2\nFormat                                   : AC-3\nFormat/Info                              : Audio Coding 3\nMode extension                           : CM (complete main)\nFormat settings, Endianness              : Big\nCodec ID                                 : A_AC3\nDuration                                 : 1h 25mn\nBit rate mode                            : Constant\nBit rate                                 : 640 Kbps\nChannel(s)                               : 6 channels\nChannel positions                        : Front: L C R, Side: L R, LFE\nSampling rate                            : 48.0 KHz\nBit depth                                : 16 bits\nCompression mode                         : Lossy\nStream size                              : 391 MiB (30%)\nLanguage                                 : English\nDefault                                  : Yes\nForced                                   : No\n\n\n &lt;a href=&quot;\nhttp://img18.imageshack.us/img18/2385/66203193.png&quot; rel=&quot;nofollow&quot; target=&quot;_NEW&quot;&gt;\nhttp://img18.imageshack.us/img18/2385/66203193.png&lt;/a&gt; &lt;a href=&quot;\nhttp://img69.imageshack.us/img69/145/99765644.png&quot; rel=&quot;nofollow&quot; target=&quot;_NEW&quot;&gt;\nhttp://img69.imageshack.us/img69/145/99765644.png&lt;/a&gt; &lt;a href=&quot;\nhttp://img24.imageshack.us/img24/7695/21759556.png&quot; rel=&quot;nofollow&quot; target=&quot;_NEW&quot;&gt;\nhttp://img24.imageshack.us/img24/7695/21759556.png&lt;/a&gt; &lt;a href=&quot;\nhttp://img818.imageshack.us/img818/9397/55121301.png&quot; rel=&quot;nofollow&quot; target=&quot;_NEW&quot;&gt;\nhttp://img818.imageshack.us/img818/9397/55121301.png&lt;/a&gt;","torrent":{"xt":"urn:btih:da4683fbe6a0a38276391f7f05cb754111c0ecf9","amp;dn":"Attack+Of+The+Nazi+Herbals+2011+BDRip+X264+AC3+-+VoXHD","amp;tr":["udp%3A%2F%2Ftracker.openbittorrent.com%3A80","udp%3A%2F%2Fopen.demonii.com%3A1337","udp%3A%2F%2Ftracker.coppersurfer.tk%3A6969","udp%3A%2F%2Fexodus.desync.com%3A6969"],"infoHash":"da4683fbe6a0a38276391f7f05cb754111c0ecf9","infoHashBuffer":{"type":"Buffer","data":[218,70,131,251,230,160,163,130,118,57,31,127,5,203,117,65,17,192,236,249]},"announce":[],"urlList":[]}}